<svg width="128" height="128" viewBox="0 0 128 128" fill="none" xmlns="http://www.w3.org/2000/svg">
	<g clip-path="url(#clip0_4911_37)">
		<path
			d="M128 64C128 28.6538 99.3462 0 64 0C28.6538 0 0 28.6538 0 64C0 99.3462 28.6538 128 64 128C99.3462 128 128 99.3462 128 64Z"
			fill="#0F0F23" />
		<path
			d="M48.0419 90.792L42.6659 86.952L56.4899 65.832L35.7539 56.872L37.8019 50.984L59.1779 58.024L60.3299 33.832H66.4739L67.6259 58.024L89.0019 50.984L91.0499 56.872L70.3139 65.832L84.1379 86.952L78.7619 90.792L63.4019 70.44L48.0419 90.792Z"
			fill="#FFFF66" />
	</g>
	<defs>
		<clipPath id="clip0_4911_37">
			<rect width="128" height="128" fill="white" />
		</clipPath>
	</defs>
</svg>